#!OML:ASF X:\für Bonn\!DataBase\2005_08_11_Bastian_Final\c3d\Bastian.ASF
:FULLY-SPECIFIED
:DEGREES
1372
root -1.58888 17.2383 -11.9267 169.363 1.10504 -171.345
lowerback 10.2244 8.75259 -0.773049
upperback 6.10895 13.4518 -5.78539
thorax 2.09068 7.56924 -6.57931
lowerneck -7.36516 -6.17269 -2.46636
upperneck -12.1208 -8.72794 6.65682
head -2.19846 -4.84904 2.52311
rclavicle -1.16885e-013 1.33583e-013
rhumerus -183.308 -199.528 104.569
rradius 56.5154
rwrist -154.817
rhand -24.1248 11.2284
rfingers 7.12502
rthumb 2.35681 -18.7383
lclavicle -1.16885e-013 1.33583e-013
lhumerus -50.898 7.33675 66.9894
lradius 28.0868
lwrist 180.841
lhand -33.3685 3.16683
lfingers 7.12502
lthumb -6.56993 33.0449
rfemur 23.6764 -11.6056 17.6542
rtibia 44.5564
rfoot 24.5008 12.1982
rtoes -34.9212
lfemur -11.1812 -23.8376 -11.8618
ltibia 37.7595
lfoot -4.10122 -29.3122
ltoes -4.98023
1373
root -1.5975 17.2501 -11.9383 169.511 1.36006 -171.365
lowerback 10.0976 8.62793 -0.889633
upperback 6.12879 13.2185 -5.62714
thorax 2.08473 7.42127 -6.31978
lowerneck -7.56474 -6.11605 -2.31549
upperneck -12.3376 -8.70143 6.58556
head -2.24794 -4.85831 2.47559
rclavicle -5.1684e-014 -4.13472e-014
rhumerus -185.379 -200.082 102.865
rradius 57.103
rwrist -154.546
rhand -24.0221 10.9032
rfingers 7.12502
rthumb 2.45599 -19.0624
lclavicle -5.1684e-014 -4.13472e-014
lhumerus -49.8781 7.85716 66.1243
lradius 28.197
lwrist 179.769
lhand -33.4101 2.68092
lfingers 7.12502
lthumb -6.61015 32.5578
rfemur 23.5103 -11.3925 17.5128
rtibia 44.4721
rfoot 24.4746 11.7567
rtoes -34.1051
lfemur -11.1315 -23.7166 -11.858
ltibia 37.5686
lfoot -4.10621 -29.1309
ltoes -4.99014
1374
root -1.60754 17.2594 -11.9495 169.633 1.64867 -171.411
lowerback 9.98138 8.50211 -1.00317
upperback 6.14356 12.9805 -5.45526
thorax 2.06698 7.26959 -6.05073
lowerneck -7.63513 -6.03965 -2.28798
upperneck -12.5909 -8.63191 6.60518
head -2.32477 -4.84379 2.48715
rclavicle 1.12115e-013 5.725e-014
rhumerus -187.468 -200.595 101.193
rradius 57.603
rwrist -154.18
rhand -23.8908 10.6535
rfingers 7.12502
rthumb 2.5828 -19.3107
lclavicle 1.12115e-013 5.725e-014
lhumerus -48.9222 8.19612 65.4803
lradius 28.368
lwrist 179.071
lhand -33.1046 2.39053
lfingers 7.12502
lthumb -6.31523 32.2764
rfemur 23.3787 -11.2235 17.2884
rtibia 44.4115
rfoot 24.4219 11.3233
rtoes -33.2663
lfemur -11.0499 -23.5807 -11.9011
ltibia 37.3796
lfoot -4.10958 -28.9217
ltoes -5.01761
1375
root -1.61731 17.2683 -11.9597 169.764 1.97519 -171.442
lowerback 9.83995 8.3667 -1.08958
upperback 6.17011 12.7358 -5.27976
thorax 2.08209 7.11643 -5.78534
lowerneck -7.70026 -5.94561 -2.26819
upperneck -12.8688 -8.54074 6.63621
head -2.41137 -4.82051 2.50568
rclavicle 1.00983e-013 -1.04958e-013
rhumerus -189.485 -201.035 99.604
rradius 58.0636
rwrist -153.774
rhand -23.7612 10.5166
rfingers 7.12502
rthumb 2.70795 -19.446
lclavicle 1.00983e-013 -1.04958e-013
lhumerus -47.9484 8.31378 65.0594
lradius 28.5402
lwrist 178.929
lhand -32.448 2.35636
lfingers 7.12502
lthumb -5.68124 32.2602
rfemur 23.227 -11.0854 17.0617
rtibia 44.3816
rfoot 24.3392 10.9394
rtoes -32.3862
lfemur -10.975 -23.3815 -11.9127
ltibia 37.1964
lfoot -4.19218 -28.7427
ltoes -5.38342
1376
root -1.62738 17.2781 -11.9697 169.877 2.36497 -171.461
lowerback 9.72906 8.24197 -1.12332
upperback 6.16009 12.5015 -5.11113
thorax 2.05786 6.96816 -5.5652
lowerneck -7.65564 -5.8376 -2.22435
upperneck -13.1633 -8.42955 6.64691
head -2.52552 -4.78734 2.51976
rclavicle -1.24042e-013 6.36111e-015
rhumerus -191.565 -201.265 97.9654
rradius 58.4359
rwrist -153.081
rhand -23.4995 10.3654
rfingers 7.12502
rthumb 2.96075 -19.5938
lclavicle -1.24042e-013 6.36111e-015
lhumerus -47.0747 8.3613 64.6529
lradius 28.7544
lwrist 178.959
lhand -31.4118 2.66951
lfingers 7.12502
lthumb -4.68081 32.5978
rfemur 23.0782 -10.9685 16.8113
rtibia 44.3911
rfoot 24.2459 10.6019
rtoes -31.6152
lfemur -10.8542 -23.198 -11.9204
ltibia 37.006
lfoot -4.23593 -28.5054
ltoes -5.60241
